<svg width="38" height="38" viewBox="0 0 38 38" fill="none" xmlns="http://www.w3.org/2000/svg">
<g clip-path="url(#clip0_206_262)">
<path d="M34.6667 21H13.0833C11.3805 21 10 22.3805 10 24.0833V34.875C10 36.5779 11.3805 37.9583 13.0833 37.9583H34.6667C36.3695 37.9583 37.75 36.5779 37.75 34.875V24.0833C37.75 22.3805 36.3695 21 34.6667 21Z" stroke="#0075FF" stroke-width="4" stroke-linecap="round" stroke-linejoin="round"/>
<path d="M11.7373 17.7308V11.5641C11.7354 9.65253 12.4438 7.80841 13.7251 6.38977C15.0064 4.97113 16.769 4.07918 18.671 3.88707C20.5729 3.69495 22.4783 4.21639 24.0174 5.35014C25.5565 6.4839 26.6194 8.14909 26.9998 10.0225V17.7308" stroke="#0075FF" stroke-width="4" stroke-linecap="round" stroke-linejoin="round"/>
</g>
<defs>
<clipPath id="clip0_206_262">
<rect width="37" height="37" fill="white" transform="translate(0.945801 0.772461)"/>
</clipPath>
</defs>
</svg>
